name C:\Users\u0101727\Documents\MyRepositories\upper-imu-dc\Results\main_mocap_tracking\Case_10\FLX01_linearAccelerations_groundFrame.mot
datacolumns 4
datarows 105
range 3.51000000 4.55000000
endheader 
time	radius_imu_x	radius_imu_y	radius_imu_z	
          3.51000000	         -0.20615523	          9.79532378	          0.61796340	
          3.52000000	         -0.28216019	          9.79151703	          0.60986300	
          3.53000000	         -0.34316234	          9.78851200	          0.57998484	
          3.54000000	         -0.38436735	          9.78446554	          0.52861277	
          3.55000000	         -0.40568158	          9.77767139	          0.45825422	
          3.56000000	         -0.41272828	          9.76833551	          0.37439126	
          3.57000000	         -0.41420399	          9.75887455	          0.28440141	
          3.58000000	         -0.41799225	          9.75298519	          0.19576075	
          3.59000000	         -0.42854688	          9.75404799	          0.11470220	
          3.60000000	         -0.44625443	          9.76383408	          0.04587255	
          3.61000000	         -0.46740802	          9.78195618	         -0.00779866	
          3.62000000	         -0.48388545	          9.80601018	         -0.04578145	
          3.63000000	         -0.48380155	          9.83223674	         -0.07045014	
          3.64000000	         -0.45442755	          9.85643455	         -0.08631089	
          3.65000000	         -0.38605909	          9.87469834	         -0.09834091	
          3.66000000	         -0.27461210	          9.88375908	         -0.11052983	
          3.67000000	         -0.12268601	          9.88114882	         -0.12476958	
          3.68000000	          0.05990766	          9.86552148	         -0.13968025	
          3.69000000	          0.25582599	          9.83717415	         -0.14950672	
          3.70000000	          0.44211148	          9.79839786	         -0.14463918	
          3.71000000	          0.59744476	          9.75321379	         -0.11575822	
          3.72000000	          0.71153852	          9.70668266	         -0.05960509	
          3.73000000	          0.78878615	          9.66430952	          0.01864395	
          3.74000000	          0.84489737	          9.63138991	          0.10740350	
          3.75000000	          0.90050195	          9.61191704	          0.19258150	
          3.76000000	          0.97421025	          9.60732496	          0.26144275	
          3.77000000	          1.07701256	          9.61569494	          0.30528291	
          3.78000000	          1.20918337	          9.63208913	          0.32067705	
          3.79000000	          1.35987203	          9.65001680	          0.30967938	
          3.80000000	          1.50967593	          9.66338622	          0.27893390	
          3.81000000	          1.63593857	          9.66800656	          0.23769166	
          3.82000000	          1.71908109	          9.66203493	          0.19493806	
          3.83000000	          1.74767348	          9.64551771	          0.15659309	
          3.84000000	          1.72072399	          9.61960573	          0.12392578	
          3.85000000	          1.64713273	          9.58594898	          0.09374974	
          3.86000000	          1.54302408	          9.54641512	          0.06016111	
          3.87000000	          1.42782034	          9.50310506	          0.01704295	
          3.88000000	          1.32010514	          9.45855178	         -0.03961870	
          3.89000000	          1.23443816	          9.41592370	         -0.11030592	
          3.90000000	          1.17973334	          9.37898553	         -0.19163901	
          3.91000000	          1.15900160	          9.35157910	         -0.27702935	
          3.92000000	          1.16992089	          9.33653450	         -0.35808831	
          3.93000000	          1.20591834	          9.33426879	         -0.42636111	
          3.94000000	          1.25778658	          9.34172235	         -0.47487504	
          3.95000000	          1.31598218	          9.35229993	         -0.49917276	
          3.96000000	          1.37330371	          9.35710395	         -0.49775938	
          3.97000000	          1.42690906	          9.34710009	         -0.47197100	
          3.98000000	          1.47865766	          9.31533741	         -0.42533575	
          3.99000000	          1.53363226	          9.25835367	         -0.36269860	
          4.00000000	          1.59755077	          9.17645860	         -0.28945925	
          4.01000000	          1.67410557	          9.07321757	         -0.21109748	
          4.02000000	          1.76314937	          8.95466032	         -0.13293233	
          4.03000000	          1.86025150	          8.82848938	         -0.05993734	
          4.04000000	          1.95738485	          8.70330571	          0.00360927	
          4.05000000	          2.04375796	          8.58787012	          0.05474264	
          4.06000000	          2.10612265	          8.49047920	          0.09250180	
          4.07000000	          2.12908234	          8.41850368	          0.11833496	
          4.08000000	          2.09647461	          8.37807874	          0.13600670	
          4.09000000	          1.99423268	          8.37378674	          0.15097225	
          4.10000000	          1.81396105	          8.40802329	          0.16931100	
          4.11000000	          1.55569962	          8.47999691	          0.19654167	
          4.12000000	          1.22882784	          8.58485523	          0.23668073	
          4.13000000	          0.85138096	          8.71357103	          0.29160555	
          4.14000000	          0.44862241	          8.85378509	          0.36060906	
          4.15000000	          0.05116655	          8.99130124	          0.44011830	
          4.16000000	         -0.30772290	          9.11180503	          0.52363535	
          4.17000000	         -0.59606779	          9.20251246	          0.60198417	
          4.18000000	         -0.78812559	          9.25362083	          0.66405444	
          4.19000000	         -0.86923417	          9.25962995	          0.69836166	
          4.20000000	         -0.83903356	          9.22058473	          0.69562572	
          4.21000000	         -0.71249649	          9.14287992	          0.65237496	
          4.22000000	         -0.51942282	          9.03896722	          0.57525991	
          4.23000000	         -0.30242922	          8.92549159	          0.48443476	
          4.24000000	         -0.11100819	          8.81968615	          0.41178876	
          4.25000000	          0.01067274	          8.73457869	          0.39000445	
          4.26000000	          0.03733021	          8.67576592	          0.43692173	
          4.27000000	         -0.03237253	          8.64272057	          0.54746872	
          4.28000000	         -0.18141887	          8.63324542	          0.69868551	
          4.29000000	         -0.38356121	          8.64628320	          0.86107910	
          4.30000000	         -0.60966182	          8.68091780	          1.00783480	
          4.31000000	         -0.82987422	          8.73332022	          1.11876531	
          4.32000000	         -1.01323183	          8.79426012	          1.17979637	
          4.33000000	         -1.12762778	          8.84878852	          1.18008710	
          4.34000000	         -1.14350775	          8.87887200	          1.10944072	
          4.35000000	         -1.04292304	          8.86905925	          0.95911758	
          4.36000000	         -0.83126968	          8.81356131	          0.72801819	
          4.37000000	         -0.54438322	          8.72087645	          0.43215190	
          4.38000000	         -0.24261678	          8.61153086	          0.10931090	
          4.39000000	          0.00908042	          8.50892116	         -0.18908715	
          4.40000000	          0.16185934	          8.43121639	         -0.41366078	
          4.41000000	          0.18989300	          8.39171378	         -0.52625802	
          4.42000000	          0.08745802	          8.40297991	         -0.50278935	
          4.43000000	         -0.12993003	          8.47437618	         -0.34170764	
          4.44000000	         -0.42026876	          8.60226855	         -0.07580331	
          4.45000000	         -0.71894189	          8.76310730	          0.23012567	
          4.46000000	         -0.95710810	          8.91766678	          0.50104869	
          4.47000000	         -1.08494283	          9.02461613	          0.67822892	
          4.48000000	         -1.08631597	          9.05464218	          0.73419910	
          4.49000000	         -0.97801977	          8.99689747	          0.67141118	
          4.50000000	         -0.79775113	          8.85728124	          0.51252381	
          4.51000000	         -0.59129935	          8.65475888	          0.29426625	
          4.52000000	         -0.40224014	          8.41765638	          0.06447739	
          4.53000000	         -0.26112419	          8.17647616	         -0.12786226	
          4.54000000	         -0.17866624	          7.95559840	         -0.24738329	
          4.55000000	         -0.14844715	          7.76906098	         -0.28119898	
